<svg width="181" height="64" viewBox="0 0 181 64" fill="none" xmlns="http://www.w3.org/2000/svg">
<rect width="181" height="64" rx="8" fill="#0F1112"/>
<g clip-path="url(#clip0_0_802)">
<path d="M25.438 47.401C24.8071 46.9813 24.2479 46.4626 23.782 45.865C23.2695 45.2482 22.7946 44.601 22.36 43.927C21.3401 42.4328 20.5402 40.7998 19.985 39.078C19.318 37.078 18.995 35.161 18.995 33.286C18.995 31.192 19.448 29.364 20.334 27.828C20.9908 26.6275 21.9564 25.6242 23.131 24.922C24.2693 24.215 25.5772 23.8281 26.917 23.802C27.386 23.802 27.891 23.87 28.427 24C28.812 24.109 29.281 24.281 29.854 24.495C30.583 24.776 30.984 24.948 31.12 24.99C31.547 25.146 31.906 25.214 32.188 25.214C32.402 25.214 32.704 25.146 33.047 25.042C33.24 24.974 33.604 24.854 34.125 24.631C34.641 24.443 35.047 24.282 35.37 24.162C35.865 24.016 36.344 23.881 36.771 23.813C37.2772 23.7332 37.7909 23.7121 38.302 23.75C39.1876 23.8079 40.0599 23.9956 40.891 24.307C42.25 24.854 43.349 25.708 44.167 26.922C43.8213 27.1351 43.4968 27.3809 43.198 27.656C42.5476 28.2326 41.9936 28.9095 41.557 29.661C40.9863 30.6881 40.6904 31.8451 40.698 33.02C40.719 34.463 41.089 35.734 41.818 36.833C42.3539 37.6475 43.0505 38.3441 43.865 38.88C44.282 39.161 44.641 39.354 44.985 39.484C44.824 39.984 44.652 40.468 44.449 40.948C43.9886 42.0244 43.4306 43.0564 42.782 44.031C42.204 44.87 41.751 45.495 41.407 45.911C40.871 46.546 40.355 47.031 39.834 47.369C39.261 47.749 38.584 47.952 37.896 47.952C37.43 47.9699 36.9642 47.9135 36.516 47.785C36.131 47.655 35.75 47.514 35.375 47.353C34.9851 47.174 34.5831 47.0226 34.172 46.9C33.1557 46.639 32.0901 46.6373 31.073 46.895C30.656 47.015 30.255 47.155 29.859 47.327C29.302 47.561 28.932 47.718 28.718 47.785C28.291 47.91 27.848 47.988 27.4 48.014C26.707 48.014 26.061 47.816 25.421 47.415L25.438 47.401ZM34.578 22.786C33.672 23.239 32.807 23.432 31.948 23.369C31.813 22.504 31.948 21.619 32.307 20.65C32.6126 19.8291 33.0642 19.0702 33.64 18.41C34.248 17.715 34.9858 17.1454 35.812 16.733C36.692 16.28 37.531 16.035 38.333 15.999C38.437 16.905 38.333 17.796 38 18.759C37.6918 19.6103 37.2411 20.403 36.667 21.103C36.0811 21.799 35.362 22.3708 34.552 22.785L34.578 22.786Z" fill="white"/>
</g>
<path d="M62.016 25V23.796H64.718C65.4367 23.796 66.0667 23.642 66.608 23.334C67.1493 23.0167 67.5693 22.5827 67.868 22.032C68.176 21.4813 68.33 20.8467 68.33 20.128C68.33 19.4187 68.176 18.7887 67.868 18.238C67.56 17.6873 67.1353 17.258 66.594 16.95C66.0527 16.642 65.4273 16.488 64.718 16.488H62.03V15.284H64.746C65.4553 15.284 66.1087 15.4053 66.706 15.648C67.3127 15.8907 67.8353 16.2313 68.274 16.67C68.722 17.1087 69.0673 17.622 69.31 18.21C69.562 18.798 69.688 19.442 69.688 20.142C69.688 20.8327 69.562 21.4767 69.31 22.074C69.0673 22.662 68.7267 23.1753 68.288 23.614C67.8493 24.0527 67.3267 24.3933 66.72 24.636C66.1227 24.8787 65.474 25 64.774 25H62.016ZM61.148 25V15.284H62.464V25H61.148ZM74.3253 25.14C73.6719 25.14 73.0839 24.986 72.5613 24.678C72.0386 24.37 71.6233 23.9547 71.3153 23.432C71.0073 22.9 70.8533 22.3073 70.8533 21.654C70.8533 21.01 71.0073 20.4313 71.3153 19.918C71.6233 19.3953 72.0386 18.98 72.5613 18.672C73.0839 18.364 73.6719 18.21 74.3253 18.21C74.9693 18.21 75.5526 18.364 76.0753 18.672C76.6073 18.9707 77.0273 19.3813 77.3353 19.904C77.6433 20.4267 77.7973 21.01 77.7973 21.654C77.7973 22.3073 77.6433 22.9 77.3353 23.432C77.0273 23.9547 76.6073 24.37 76.0753 24.678C75.5526 24.986 74.9693 25.14 74.3253 25.14ZM74.3253 23.922C74.7453 23.922 75.1186 23.824 75.4453 23.628C75.7719 23.432 76.0286 23.166 76.2153 22.83C76.4019 22.4847 76.4953 22.0927 76.4953 21.654C76.4953 21.2247 76.3973 20.842 76.2013 20.506C76.0146 20.17 75.7579 19.9087 75.4313 19.722C75.1139 19.526 74.7453 19.428 74.3253 19.428C73.9053 19.428 73.5319 19.526 73.2053 19.722C72.8786 19.9087 72.6219 20.17 72.4353 20.506C72.2486 20.842 72.1553 21.2247 72.1553 21.654C72.1553 22.0927 72.2486 22.4847 72.4353 22.83C72.6219 23.166 72.8786 23.432 73.2053 23.628C73.5319 23.824 73.9053 23.922 74.3253 23.922ZM80.9296 25L78.2976 18.35H79.6136L81.5176 23.53H81.0976L82.9876 18.35H83.7156L85.6056 23.53H85.1856L87.0896 18.35H88.4056L85.7876 25H85.0456L83.1276 19.974H83.5896L81.6576 25H80.9296ZM94.2296 25V21.122C94.2296 20.618 94.0709 20.2027 93.7536 19.876C93.4362 19.5493 93.0256 19.386 92.5216 19.386C92.1856 19.386 91.8869 19.4607 91.6256 19.61C91.3642 19.7593 91.1589 19.9647 91.0096 20.226C90.8602 20.4873 90.7856 20.786 90.7856 21.122L90.2676 20.828C90.2676 20.324 90.3796 19.876 90.6036 19.484C90.8276 19.092 91.1402 18.784 91.5416 18.56C91.9429 18.3267 92.3956 18.21 92.8996 18.21C93.4036 18.21 93.8469 18.336 94.2296 18.588C94.6216 18.84 94.9296 19.1713 95.1536 19.582C95.3776 19.9833 95.4896 20.4127 95.4896 20.87V25H94.2296ZM89.5256 25V18.35H90.7856V25H89.5256ZM97.1955 25V15.004H98.4555V25H97.1955ZM100.299 25V15.004H101.559V25H100.299ZM106.441 25.14C105.787 25.14 105.199 24.986 104.677 24.678C104.154 24.37 103.739 23.9547 103.431 23.432C103.123 22.9 102.969 22.3073 102.969 21.654C102.969 21.01 103.123 20.4313 103.431 19.918C103.739 19.3953 104.154 18.98 104.677 18.672C105.199 18.364 105.787 18.21 106.441 18.21C107.085 18.21 107.668 18.364 108.191 18.672C108.723 18.9707 109.143 19.3813 109.451 19.904C109.759 20.4267 109.913 21.01 109.913 21.654C109.913 22.3073 109.759 22.9 109.451 23.432C109.143 23.9547 108.723 24.37 108.191 24.678C107.668 24.986 107.085 25.14 106.441 25.14ZM106.441 23.922C106.861 23.922 107.234 23.824 107.561 23.628C107.887 23.432 108.144 23.166 108.331 22.83C108.517 22.4847 108.611 22.0927 108.611 21.654C108.611 21.2247 108.513 20.842 108.317 20.506C108.13 20.17 107.873 19.9087 107.547 19.722C107.229 19.526 106.861 19.428 106.441 19.428C106.021 19.428 105.647 19.526 105.321 19.722C104.994 19.9087 104.737 20.17 104.551 20.506C104.364 20.842 104.271 21.2247 104.271 21.654C104.271 22.0927 104.364 22.4847 104.551 22.83C104.737 23.166 104.994 23.432 105.321 23.628C105.647 23.824 106.021 23.922 106.441 23.922ZM114.16 25.14C113.554 25.14 113.003 24.9907 112.508 24.692C112.014 24.384 111.622 23.9687 111.332 23.446C111.052 22.9233 110.912 22.3353 110.912 21.682C110.912 21.0287 111.052 20.4407 111.332 19.918C111.622 19.3953 112.009 18.98 112.494 18.672C112.989 18.364 113.544 18.21 114.16 18.21C114.664 18.21 115.112 18.3173 115.504 18.532C115.906 18.7373 116.228 19.0267 116.47 19.4C116.713 19.764 116.848 20.1887 116.876 20.674V22.676C116.848 23.152 116.713 23.5767 116.47 23.95C116.237 24.3233 115.92 24.6173 115.518 24.832C115.126 25.0373 114.674 25.14 114.16 25.14ZM114.37 23.95C114.996 23.95 115.5 23.74 115.882 23.32C116.265 22.8907 116.456 22.3447 116.456 21.682C116.456 21.2247 116.368 20.828 116.19 20.492C116.022 20.1467 115.78 19.8807 115.462 19.694C115.145 19.498 114.776 19.4 114.356 19.4C113.936 19.4 113.563 19.498 113.236 19.694C112.919 19.89 112.667 20.1607 112.48 20.506C112.303 20.842 112.214 21.2293 112.214 21.668C112.214 22.116 112.303 22.5127 112.48 22.858C112.667 23.194 112.924 23.46 113.25 23.656C113.577 23.852 113.95 23.95 114.37 23.95ZM116.372 25V23.208L116.61 21.584L116.372 19.974V18.35H117.646V25H116.372ZM122.295 25.14C121.679 25.14 121.128 24.9907 120.643 24.692C120.157 24.384 119.77 23.9687 119.481 23.446C119.201 22.9233 119.061 22.3353 119.061 21.682C119.061 21.0287 119.201 20.4407 119.481 19.918C119.77 19.3953 120.157 18.98 120.643 18.672C121.128 18.364 121.679 18.21 122.295 18.21C122.789 18.21 123.237 18.3173 123.639 18.532C124.04 18.7373 124.362 19.0267 124.605 19.4C124.857 19.764 124.997 20.1887 125.025 20.674V22.676C124.997 23.152 124.861 23.5767 124.619 23.95C124.376 24.3233 124.054 24.6173 123.653 24.832C123.251 25.0373 122.799 25.14 122.295 25.14ZM122.505 23.95C122.925 23.95 123.289 23.852 123.597 23.656C123.914 23.46 124.161 23.194 124.339 22.858C124.516 22.5127 124.605 22.1207 124.605 21.682C124.605 21.2247 124.511 20.828 124.325 20.492C124.147 20.156 123.9 19.89 123.583 19.694C123.275 19.498 122.911 19.4 122.491 19.4C122.071 19.4 121.702 19.498 121.385 19.694C121.067 19.89 120.815 20.1607 120.629 20.506C120.451 20.842 120.363 21.2293 120.363 21.668C120.363 22.116 120.451 22.5127 120.629 22.858C120.815 23.194 121.067 23.46 121.385 23.656C121.711 23.852 122.085 23.95 122.505 23.95ZM125.795 25H124.521V23.208L124.759 21.584L124.521 19.974V15.004H125.795V25ZM130.555 25V18.35H131.815V25H130.555ZM131.185 17.02C130.952 17.02 130.761 16.9453 130.611 16.796C130.462 16.6373 130.387 16.4413 130.387 16.208C130.387 15.984 130.462 15.7973 130.611 15.648C130.761 15.4893 130.952 15.41 131.185 15.41C131.419 15.41 131.61 15.4893 131.759 15.648C131.909 15.7973 131.983 15.984 131.983 16.208C131.983 16.4413 131.909 16.6373 131.759 16.796C131.61 16.9453 131.419 17.02 131.185 17.02ZM134.694 25V15.564H135.954V25H134.694ZM133.056 19.498V18.35H137.592V19.498H133.056ZM144.776 25.14C144.123 25.14 143.535 24.986 143.012 24.678C142.49 24.37 142.074 23.9547 141.766 23.432C141.458 22.9 141.304 22.3073 141.304 21.654C141.304 21.01 141.458 20.4313 141.766 19.918C142.074 19.3953 142.49 18.98 143.012 18.672C143.535 18.364 144.123 18.21 144.776 18.21C145.42 18.21 146.004 18.364 146.526 18.672C147.058 18.9707 147.478 19.3813 147.786 19.904C148.094 20.4267 148.248 21.01 148.248 21.654C148.248 22.3073 148.094 22.9 147.786 23.432C147.478 23.9547 147.058 24.37 146.526 24.678C146.004 24.986 145.42 25.14 144.776 25.14ZM144.776 23.922C145.196 23.922 145.57 23.824 145.896 23.628C146.223 23.432 146.48 23.166 146.666 22.83C146.853 22.4847 146.946 22.0927 146.946 21.654C146.946 21.2247 146.848 20.842 146.652 20.506C146.466 20.17 146.209 19.9087 145.882 19.722C145.565 19.526 145.196 19.428 144.776 19.428C144.356 19.428 143.983 19.526 143.656 19.722C143.33 19.9087 143.073 20.17 142.886 20.506C142.7 20.842 142.606 21.2247 142.606 21.654C142.606 22.0927 142.7 22.4847 142.886 22.83C143.073 23.166 143.33 23.432 143.656 23.628C143.983 23.824 144.356 23.922 144.776 23.922ZM154.372 25V21.122C154.372 20.618 154.213 20.2027 153.896 19.876C153.579 19.5493 153.168 19.386 152.664 19.386C152.328 19.386 152.029 19.4607 151.768 19.61C151.507 19.7593 151.301 19.9647 151.152 20.226C151.003 20.4873 150.928 20.786 150.928 21.122L150.41 20.828C150.41 20.324 150.522 19.876 150.746 19.484C150.97 19.092 151.283 18.784 151.684 18.56C152.085 18.3267 152.538 18.21 153.042 18.21C153.546 18.21 153.989 18.336 154.372 18.588C154.764 18.84 155.072 19.1713 155.296 19.582C155.52 19.9833 155.632 20.4127 155.632 20.87V25H154.372ZM149.668 25V18.35H150.928V25H149.668Z" fill="white"/>
<path d="M60.576 53L67.488 36.2H69.408L76.272 53H73.296L67.92 39.392H68.928L63.504 53H60.576ZM63.984 49.76V47.36H72.888V49.76H63.984ZM84.4836 53.24C83.6036 53.24 82.8196 53.056 82.1316 52.688C81.4436 52.304 80.8996 51.784 80.4996 51.128C80.1156 50.472 79.9236 49.728 79.9236 48.896V45.584C79.9236 44.752 80.1236 44.008 80.5236 43.352C80.9236 42.696 81.4676 42.184 82.1556 41.816C82.8436 41.432 83.6196 41.24 84.4836 41.24C85.5236 41.24 86.4596 41.512 87.2916 42.056C88.1396 42.584 88.8036 43.304 89.2836 44.216C89.7796 45.112 90.0276 46.128 90.0276 47.264C90.0276 48.384 89.7796 49.4 89.2836 50.312C88.8036 51.208 88.1396 51.92 87.2916 52.448C86.4596 52.976 85.5236 53.24 84.4836 53.24ZM84.0516 50.744C84.6916 50.744 85.2516 50.6 85.7316 50.312C86.2276 50.008 86.6116 49.592 86.8836 49.064C87.1716 48.536 87.3156 47.928 87.3156 47.24C87.3156 46.552 87.1716 45.944 86.8836 45.416C86.6116 44.888 86.2276 44.48 85.7316 44.192C85.2516 43.888 84.6916 43.736 84.0516 43.736C83.4116 43.736 82.8436 43.888 82.3476 44.192C81.8516 44.48 81.4676 44.888 81.1956 45.416C80.9236 45.944 80.7876 46.552 80.7876 47.24C80.7876 47.928 80.9236 48.536 81.1956 49.064C81.4676 49.592 81.8516 50.008 82.3476 50.312C82.8436 50.6 83.4116 50.744 84.0516 50.744ZM78.3156 57.8V41.48H80.9556V44.576L80.4996 47.384L80.9556 50.168V57.8H78.3156ZM98.4054 53.24C97.5254 53.24 96.7414 53.056 96.0534 52.688C95.3654 52.304 94.8214 51.784 94.4214 51.128C94.0374 50.472 93.8454 49.728 93.8454 48.896V45.584C93.8454 44.752 94.0454 44.008 94.4454 43.352C94.8454 42.696 95.3894 42.184 96.0774 41.816C96.7654 41.432 97.5414 41.24 98.4054 41.24C99.4454 41.24 100.381 41.512 101.213 42.056C102.061 42.584 102.725 43.304 103.205 44.216C103.701 45.112 103.949 46.128 103.949 47.264C103.949 48.384 103.701 49.4 103.205 50.312C102.725 51.208 102.061 51.92 101.213 52.448C100.381 52.976 99.4454 53.24 98.4054 53.24ZM97.9734 50.744C98.6134 50.744 99.1734 50.6 99.6534 50.312C100.149 50.008 100.533 49.592 100.805 49.064C101.093 48.536 101.237 47.928 101.237 47.24C101.237 46.552 101.093 45.944 100.805 45.416C100.533 44.888 100.149 44.48 99.6534 44.192C99.1734 43.888 98.6134 43.736 97.9734 43.736C97.3334 43.736 96.7654 43.888 96.2694 44.192C95.7734 44.48 95.3894 44.888 95.1174 45.416C94.8454 45.944 94.7094 46.552 94.7094 47.24C94.7094 47.928 94.8454 48.536 95.1174 49.064C95.3894 49.592 95.7734 50.008 96.2694 50.312C96.7654 50.6 97.3334 50.744 97.9734 50.744ZM92.2374 57.8V41.48H94.8774V44.576L94.4214 47.384L94.8774 50.168V57.8H92.2374ZM114.732 53.24C114.092 53.24 113.476 53.16 112.884 53C112.292 52.824 111.748 52.584 111.252 52.28C110.756 51.96 110.324 51.576 109.956 51.128L111.636 49.448C112.036 49.912 112.492 50.264 113.004 50.504C113.532 50.728 114.124 50.84 114.78 50.84C115.372 50.84 115.82 50.752 116.124 50.576C116.428 50.4 116.58 50.144 116.58 49.808C116.58 49.456 116.436 49.184 116.148 48.992C115.86 48.8 115.484 48.64 115.02 48.512C114.572 48.368 114.092 48.224 113.58 48.08C113.084 47.936 112.604 47.744 112.14 47.504C111.692 47.248 111.324 46.904 111.036 46.472C110.748 46.04 110.604 45.48 110.604 44.792C110.604 44.056 110.772 43.424 111.108 42.896C111.46 42.368 111.948 41.96 112.572 41.672C113.212 41.384 113.972 41.24 114.852 41.24C115.78 41.24 116.596 41.408 117.3 41.744C118.02 42.064 118.62 42.552 119.1 43.208L117.42 44.888C117.084 44.472 116.7 44.16 116.268 43.952C115.836 43.744 115.34 43.64 114.78 43.64C114.252 43.64 113.844 43.72 113.556 43.88C113.268 44.04 113.124 44.272 113.124 44.576C113.124 44.896 113.268 45.144 113.556 45.32C113.844 45.496 114.212 45.648 114.66 45.776C115.124 45.904 115.604 46.048 116.1 46.208C116.612 46.352 117.092 46.56 117.54 46.832C118.004 47.088 118.38 47.44 118.668 47.888C118.956 48.32 119.1 48.888 119.1 49.592C119.1 50.712 118.708 51.6 117.924 52.256C117.14 52.912 116.076 53.24 114.732 53.24ZM123.029 53V36.68H125.669V53H123.029ZM120.269 43.88V41.48H128.429V43.88H120.269ZM135.299 53.24C134.179 53.24 133.163 52.976 132.251 52.448C131.339 51.904 130.611 51.176 130.067 50.264C129.539 49.352 129.275 48.336 129.275 47.216C129.275 46.096 129.539 45.088 130.067 44.192C130.611 43.296 131.339 42.584 132.251 42.056C133.163 41.512 134.179 41.24 135.299 41.24C136.435 41.24 137.459 41.504 138.371 42.032C139.283 42.56 140.003 43.28 140.531 44.192C141.075 45.088 141.347 46.096 141.347 47.216C141.347 48.336 141.075 49.352 140.531 50.264C140.003 51.176 139.283 51.904 138.371 52.448C137.459 52.976 136.435 53.24 135.299 53.24ZM135.299 50.696C135.955 50.696 136.531 50.552 137.027 50.264C137.539 49.96 137.931 49.544 138.203 49.016C138.491 48.488 138.635 47.888 138.635 47.216C138.635 46.544 138.491 45.952 138.203 45.44C137.915 44.928 137.523 44.528 137.027 44.24C136.531 43.936 135.955 43.784 135.299 43.784C134.659 43.784 134.083 43.936 133.571 44.24C133.075 44.528 132.683 44.928 132.395 45.44C132.123 45.952 131.987 46.544 131.987 47.216C131.987 47.888 132.123 48.488 132.395 49.016C132.683 49.544 133.075 49.96 133.571 50.264C134.083 50.552 134.659 50.696 135.299 50.696ZM143.542 53V41.48H146.182V53H143.542ZM146.182 46.592L145.27 46.136C145.27 44.68 145.59 43.504 146.23 42.608C146.886 41.696 147.87 41.24 149.182 41.24C149.758 41.24 150.278 41.344 150.742 41.552C151.206 41.76 151.638 42.096 152.038 42.56L150.31 44.336C150.102 44.112 149.87 43.952 149.614 43.856C149.358 43.76 149.062 43.712 148.726 43.712C147.99 43.712 147.382 43.944 146.902 44.408C146.422 44.872 146.182 45.6 146.182 46.592ZM158.316 53.24C157.164 53.24 156.124 52.984 155.196 52.472C154.284 51.944 153.556 51.224 153.012 50.312C152.484 49.4 152.22 48.376 152.22 47.24C152.22 46.104 152.484 45.088 153.012 44.192C153.54 43.28 154.252 42.56 155.148 42.032C156.06 41.504 157.068 41.24 158.172 41.24C159.244 41.24 160.188 41.488 161.004 41.984C161.836 42.48 162.484 43.16 162.948 44.024C163.428 44.888 163.668 45.872 163.668 46.976C163.668 47.168 163.652 47.368 163.62 47.576C163.604 47.768 163.572 47.984 163.524 48.224H154.068V46.064H162.156L161.172 46.928C161.14 46.224 161.004 45.632 160.764 45.152C160.524 44.672 160.18 44.304 159.732 44.048C159.3 43.792 158.764 43.664 158.124 43.664C157.452 43.664 156.868 43.808 156.372 44.096C155.876 44.384 155.492 44.792 155.22 45.32C154.948 45.832 154.812 46.448 154.812 47.168C154.812 47.888 154.956 48.52 155.244 49.064C155.532 49.608 155.94 50.032 156.468 50.336C156.996 50.624 157.604 50.768 158.292 50.768C158.884 50.768 159.428 50.664 159.924 50.456C160.436 50.248 160.868 49.944 161.22 49.544L162.9 51.248C162.34 51.904 161.66 52.4 160.86 52.736C160.06 53.072 159.212 53.24 158.316 53.24Z" fill="white"/>
<defs>
<clipPath id="clip0_0_802">
<rect width="32" height="32" fill="white" transform="translate(16 16)"/>
</clipPath>
</defs>
</svg>
