<svg width="181" height="64" viewBox="0 0 181 64" fill="none" xmlns="http://www.w3.org/2000/svg">
<rect width="180.907" height="64" rx="8" fill="#0F1112"/>
<g clip-path="url(#clip0_0_809)">
<path d="M38.0556 36.8907C41.8465 34.8092 44.7203 33.2231 44.9681 33.0997C45.7605 32.6784 46.5788 31.563 44.9681 30.6967C44.448 30.4242 41.648 28.8875 38.0556 26.9058L33.0755 31.9353L38.0556 36.8906V36.8907Z" fill="#FFD900"/>
<path d="M33.0755 31.9351L17.2183 47.9167C17.5905 47.966 18.0107 47.8673 18.5061 47.595C19.5463 47.0256 30.5725 41.0041 38.0556 36.8917L33.0755 31.9351Z" fill="#F43249"/>
<path d="M33.0755 31.9351L38.0556 26.9303C38.0556 26.9303 19.6215 16.8701 18.5062 16.2762C18.086 16.0273 17.6151 15.9534 17.1937 16.0273L33.0755 31.9351Z" fill="#00EE76"/>
<path d="M33.0755 31.9351L17.1937 16.0273C16.5491 16.1764 16.0044 16.7458 16.0044 17.9104V46.0336C16.0044 47.0996 16.4259 47.8673 17.2183 47.9414L33.0755 31.9351Z" fill="#00D3FF"/>
</g>
<path d="M63.4507 25.14C62.7693 25.14 62.13 25.014 61.5327 24.762C60.9447 24.5007 60.4267 24.1413 59.9787 23.684C59.54 23.2267 59.1947 22.6947 58.9427 22.088C58.6907 21.4813 58.5647 20.828 58.5647 20.128C58.5647 19.428 58.6907 18.7793 58.9427 18.182C59.1947 17.5753 59.5447 17.0433 59.9927 16.586C60.4407 16.1287 60.9633 15.774 61.5607 15.522C62.1673 15.27 62.8253 15.144 63.5347 15.144C64.3093 15.144 65.0233 15.2933 65.6767 15.592C66.33 15.8907 66.876 16.32 67.3147 16.88L66.4047 17.79C66.0967 17.342 65.6907 17.0013 65.1867 16.768C64.6827 16.5253 64.132 16.404 63.5347 16.404C62.8253 16.404 62.1953 16.5627 61.6447 16.88C61.1033 17.1973 60.6787 17.636 60.3707 18.196C60.072 18.756 59.9227 19.4 59.9227 20.128C59.9227 20.8653 60.0767 21.514 60.3847 22.074C60.6927 22.634 61.108 23.0727 61.6307 23.39C62.1533 23.7073 62.7507 23.866 63.4227 23.866C64.104 23.866 64.692 23.7353 65.1867 23.474C65.6907 23.2127 66.078 22.83 66.3487 22.326C66.6193 21.8127 66.7547 21.1873 66.7547 20.45L67.5527 21.024H63.3527V19.82H68.1127V20.016C68.1127 21.1453 67.912 22.0927 67.5107 22.858C67.1187 23.614 66.568 24.1833 65.8587 24.566C65.1587 24.9487 64.356 25.14 63.4507 25.14ZM72.7388 25.14C72.0761 25.14 71.4788 24.9907 70.9468 24.692C70.4148 24.384 69.9948 23.9687 69.6868 23.446C69.3788 22.9233 69.2248 22.3307 69.2248 21.668C69.2248 21.0147 69.3741 20.4267 69.6728 19.904C69.9808 19.3813 70.3915 18.9707 70.9048 18.672C71.4275 18.364 72.0108 18.21 72.6548 18.21C73.2708 18.21 73.8121 18.35 74.2788 18.63C74.7548 18.91 75.1235 19.2973 75.3848 19.792C75.6555 20.2867 75.7908 20.8467 75.7908 21.472C75.7908 21.5653 75.7861 21.668 75.7768 21.78C75.7675 21.8827 75.7488 22.004 75.7208 22.144H70.1068V21.094H75.0488L74.5868 21.5C74.5868 21.052 74.5075 20.674 74.3488 20.366C74.1901 20.0487 73.9661 19.806 73.6768 19.638C73.3875 19.4607 73.0375 19.372 72.6268 19.372C72.1975 19.372 71.8195 19.4653 71.4928 19.652C71.1661 19.8387 70.9141 20.1 70.7368 20.436C70.5595 20.772 70.4708 21.1687 70.4708 21.626C70.4708 22.0927 70.5641 22.5033 70.7508 22.858C70.9375 23.2033 71.2035 23.474 71.5488 23.67C71.8941 23.8567 72.2908 23.95 72.7388 23.95C73.1121 23.95 73.4528 23.8847 73.7608 23.754C74.0781 23.6233 74.3488 23.4273 74.5728 23.166L75.3848 23.992C75.0675 24.3653 74.6755 24.65 74.2088 24.846C73.7515 25.042 73.2615 25.14 72.7388 25.14ZM77.9816 25V15.564H79.2416V25H77.9816ZM76.3436 19.498V18.35H80.8796V19.498H76.3436ZM85.04 25V18.35H86.3V25H85.04ZM85.67 17.02C85.4367 17.02 85.2453 16.9453 85.096 16.796C84.9467 16.6373 84.872 16.4413 84.872 16.208C84.872 15.984 84.9467 15.7973 85.096 15.648C85.2453 15.4893 85.4367 15.41 85.67 15.41C85.9033 15.41 86.0947 15.4893 86.244 15.648C86.3933 15.7973 86.468 15.984 86.468 16.208C86.468 16.4413 86.3933 16.6373 86.244 16.796C86.0947 16.9453 85.9033 17.02 85.67 17.02ZM89.1788 25V15.564H90.4388V25H89.1788ZM87.5408 19.498V18.35H92.0768V19.498H87.5408ZM99.2613 25.14C98.6079 25.14 98.0199 24.986 97.4973 24.678C96.9746 24.37 96.5593 23.9547 96.2513 23.432C95.9433 22.9 95.7893 22.3073 95.7893 21.654C95.7893 21.01 95.9433 20.4313 96.2513 19.918C96.5593 19.3953 96.9746 18.98 97.4973 18.672C98.0199 18.364 98.6079 18.21 99.2613 18.21C99.9053 18.21 100.489 18.364 101.011 18.672C101.543 18.9707 101.963 19.3813 102.271 19.904C102.579 20.4267 102.733 21.01 102.733 21.654C102.733 22.3073 102.579 22.9 102.271 23.432C101.963 23.9547 101.543 24.37 101.011 24.678C100.489 24.986 99.9053 25.14 99.2613 25.14ZM99.2613 23.922C99.6813 23.922 100.055 23.824 100.381 23.628C100.708 23.432 100.965 23.166 101.151 22.83C101.338 22.4847 101.431 22.0927 101.431 21.654C101.431 21.2247 101.333 20.842 101.137 20.506C100.951 20.17 100.694 19.9087 100.367 19.722C100.05 19.526 99.6813 19.428 99.2613 19.428C98.8413 19.428 98.4679 19.526 98.1413 19.722C97.8146 19.9087 97.5579 20.17 97.3713 20.506C97.1846 20.842 97.0913 21.2247 97.0913 21.654C97.0913 22.0927 97.1846 22.4847 97.3713 22.83C97.5579 23.166 97.8146 23.432 98.1413 23.628C98.4679 23.824 98.8413 23.922 99.2613 23.922ZM108.857 25V21.122C108.857 20.618 108.698 20.2027 108.381 19.876C108.064 19.5493 107.653 19.386 107.149 19.386C106.813 19.386 106.514 19.4607 106.253 19.61C105.992 19.7593 105.786 19.9647 105.637 20.226C105.488 20.4873 105.413 20.786 105.413 21.122L104.895 20.828C104.895 20.324 105.007 19.876 105.231 19.484C105.455 19.092 105.768 18.784 106.169 18.56C106.57 18.3267 107.023 18.21 107.527 18.21C108.031 18.21 108.474 18.336 108.857 18.588C109.249 18.84 109.557 19.1713 109.781 19.582C110.005 19.9833 110.117 20.4127 110.117 20.87V25H108.857ZM104.153 25V18.35H105.413V25H104.153Z" fill="white"/>
<path d="M61.6267 46.664V44.264H65.8267C66.4027 44.264 66.9067 44.152 67.3387 43.928C67.7867 43.688 68.1387 43.36 68.3947 42.944C68.6507 42.512 68.7787 42.008 68.7787 41.432C68.7787 40.856 68.6507 40.36 68.3947 39.944C68.1387 39.512 67.7867 39.184 67.3387 38.96C66.9067 38.72 66.4027 38.6 65.8267 38.6H61.6267V36.2H65.9707C67.0267 36.2 67.9707 36.416 68.8027 36.848C69.6507 37.28 70.3147 37.888 70.7947 38.672C71.2907 39.456 71.5387 40.376 71.5387 41.432C71.5387 42.488 71.2907 43.408 70.7947 44.192C70.3147 44.976 69.6507 45.584 68.8027 46.016C67.9707 46.448 67.0267 46.664 65.9707 46.664H61.6267ZM59.7307 53V36.2H62.4907V53H59.7307ZM73.8551 53V35.72H76.4951V53H73.8551ZM84.2572 53.24C83.2172 53.24 82.2732 52.976 81.4252 52.448C80.5932 51.92 79.9292 51.208 79.4332 50.312C78.9532 49.4 78.7132 48.384 78.7132 47.264C78.7132 46.128 78.9532 45.112 79.4332 44.216C79.9292 43.304 80.5932 42.584 81.4252 42.056C82.2732 41.512 83.2172 41.24 84.2572 41.24C85.1372 41.24 85.9132 41.432 86.5852 41.816C87.2732 42.184 87.8172 42.696 88.2172 43.352C88.6172 44.008 88.8172 44.752 88.8172 45.584V48.896C88.8172 49.728 88.6172 50.472 88.2172 51.128C87.8332 51.784 87.2972 52.304 86.6092 52.688C85.9212 53.056 85.1372 53.24 84.2572 53.24ZM84.6892 50.744C85.6652 50.744 86.4492 50.416 87.0412 49.76C87.6492 49.104 87.9532 48.264 87.9532 47.24C87.9532 46.552 87.8172 45.944 87.5452 45.416C87.2732 44.888 86.8892 44.48 86.3932 44.192C85.9132 43.888 85.3452 43.736 84.6892 43.736C84.0492 43.736 83.4812 43.888 82.9852 44.192C82.5052 44.48 82.1212 44.888 81.8332 45.416C81.5612 45.944 81.4252 46.552 81.4252 47.24C81.4252 47.928 81.5612 48.536 81.8332 49.064C82.1212 49.592 82.5052 50.008 82.9852 50.312C83.4812 50.6 84.0492 50.744 84.6892 50.744ZM87.7852 53V49.904L88.2412 47.096L87.7852 44.312V41.48H90.4252V53H87.7852ZM97.0751 53.12L92.1551 41.48H95.0591L98.4191 50.024H97.5791L101.131 41.48H104.059L98.7071 53.12H97.0751ZM93.6431 57.8L97.2191 50.432L98.7071 53.12L96.5711 57.8H93.6431ZM114.35 53.24C113.71 53.24 113.094 53.16 112.502 53C111.91 52.824 111.366 52.584 110.87 52.28C110.374 51.96 109.942 51.576 109.574 51.128L111.254 49.448C111.654 49.912 112.11 50.264 112.622 50.504C113.15 50.728 113.742 50.84 114.398 50.84C114.99 50.84 115.438 50.752 115.742 50.576C116.046 50.4 116.198 50.144 116.198 49.808C116.198 49.456 116.054 49.184 115.766 48.992C115.478 48.8 115.102 48.64 114.638 48.512C114.19 48.368 113.71 48.224 113.198 48.08C112.702 47.936 112.222 47.744 111.758 47.504C111.31 47.248 110.942 46.904 110.654 46.472C110.366 46.04 110.222 45.48 110.222 44.792C110.222 44.056 110.39 43.424 110.726 42.896C111.078 42.368 111.566 41.96 112.19 41.672C112.83 41.384 113.59 41.24 114.47 41.24C115.398 41.24 116.214 41.408 116.918 41.744C117.638 42.064 118.238 42.552 118.718 43.208L117.038 44.888C116.702 44.472 116.318 44.16 115.886 43.952C115.454 43.744 114.958 43.64 114.398 43.64C113.87 43.64 113.462 43.72 113.174 43.88C112.886 44.04 112.742 44.272 112.742 44.576C112.742 44.896 112.886 45.144 113.174 45.32C113.462 45.496 113.83 45.648 114.278 45.776C114.742 45.904 115.222 46.048 115.718 46.208C116.23 46.352 116.71 46.56 117.158 46.832C117.622 47.088 117.998 47.44 118.286 47.888C118.574 48.32 118.718 48.888 118.718 49.592C118.718 50.712 118.326 51.6 117.542 52.256C116.758 52.912 115.694 53.24 114.35 53.24ZM122.646 53V36.68H125.286V53H122.646ZM119.886 43.88V41.48H128.046V43.88H119.886ZM134.916 53.24C133.796 53.24 132.78 52.976 131.868 52.448C130.956 51.904 130.228 51.176 129.684 50.264C129.156 49.352 128.892 48.336 128.892 47.216C128.892 46.096 129.156 45.088 129.684 44.192C130.228 43.296 130.956 42.584 131.868 42.056C132.78 41.512 133.796 41.24 134.916 41.24C136.052 41.24 137.076 41.504 137.988 42.032C138.9 42.56 139.62 43.28 140.148 44.192C140.692 45.088 140.964 46.096 140.964 47.216C140.964 48.336 140.692 49.352 140.148 50.264C139.62 51.176 138.9 51.904 137.988 52.448C137.076 52.976 136.052 53.24 134.916 53.24ZM134.916 50.696C135.572 50.696 136.148 50.552 136.644 50.264C137.156 49.96 137.548 49.544 137.82 49.016C138.108 48.488 138.252 47.888 138.252 47.216C138.252 46.544 138.108 45.952 137.82 45.44C137.532 44.928 137.14 44.528 136.644 44.24C136.148 43.936 135.572 43.784 134.916 43.784C134.276 43.784 133.7 43.936 133.188 44.24C132.692 44.528 132.3 44.928 132.012 45.44C131.74 45.952 131.604 46.544 131.604 47.216C131.604 47.888 131.74 48.488 132.012 49.016C132.3 49.544 132.692 49.96 133.188 50.264C133.7 50.552 134.276 50.696 134.916 50.696ZM143.16 53V41.48H145.8V53H143.16ZM145.8 46.592L144.888 46.136C144.888 44.68 145.208 43.504 145.848 42.608C146.504 41.696 147.488 41.24 148.8 41.24C149.376 41.24 149.896 41.344 150.36 41.552C150.824 41.76 151.256 42.096 151.656 42.56L149.928 44.336C149.72 44.112 149.488 43.952 149.232 43.856C148.976 43.76 148.68 43.712 148.344 43.712C147.608 43.712 147 43.944 146.52 44.408C146.04 44.872 145.8 45.6 145.8 46.592ZM157.934 53.24C156.782 53.24 155.742 52.984 154.814 52.472C153.902 51.944 153.174 51.224 152.63 50.312C152.102 49.4 151.838 48.376 151.838 47.24C151.838 46.104 152.102 45.088 152.63 44.192C153.158 43.28 153.87 42.56 154.766 42.032C155.678 41.504 156.686 41.24 157.79 41.24C158.862 41.24 159.806 41.488 160.622 41.984C161.454 42.48 162.102 43.16 162.566 44.024C163.046 44.888 163.286 45.872 163.286 46.976C163.286 47.168 163.27 47.368 163.238 47.576C163.222 47.768 163.19 47.984 163.142 48.224H153.686V46.064H161.774L160.79 46.928C160.758 46.224 160.622 45.632 160.382 45.152C160.142 44.672 159.798 44.304 159.35 44.048C158.918 43.792 158.382 43.664 157.742 43.664C157.07 43.664 156.486 43.808 155.99 44.096C155.494 44.384 155.11 44.792 154.838 45.32C154.566 45.832 154.43 46.448 154.43 47.168C154.43 47.888 154.574 48.52 154.862 49.064C155.15 49.608 155.558 50.032 156.086 50.336C156.614 50.624 157.222 50.768 157.91 50.768C158.502 50.768 159.046 50.664 159.542 50.456C160.054 50.248 160.486 49.944 160.838 49.544L162.518 51.248C161.958 51.904 161.278 52.4 160.478 52.736C159.678 53.072 158.83 53.24 157.934 53.24Z" fill="white"/>
<defs>
<clipPath id="clip0_0_809">
<rect width="29.9067" height="32" fill="white" transform="translate(16 16)"/>
</clipPath>
</defs>
</svg>
