<svg width="48" height="48" viewBox="0 0 48 48" fill="none" xmlns="http://www.w3.org/2000/svg">
<path d="M23.414 6.07294C14.7684 6.87242 7.99925 14.1457 7.99925 23C7.99925 24.9 8.31094 26.7272 8.88599 28.4332C9.10239 29.0752 9.21059 29.3962 9.2301 29.6429C9.24938 29.8864 9.23481 30.0571 9.17456 30.2939C9.11354 30.5336 8.97884 30.783 8.70944 31.2816L5.43812 37.3367C4.9715 38.2004 4.73819 38.6323 4.79041 38.9655C4.83589 39.2558 5.00674 39.5115 5.2576 39.6645C5.5456 39.8402 6.03385 39.7897 7.01033 39.6887L17.2524 38.63C17.5624 38.598 17.7176 38.5819 17.859 38.5873C17.998 38.5927 18.0961 38.6057 18.2317 38.637C18.3696 38.6687 18.5429 38.7355 18.8896 38.8691C20.7857 39.5996 22.8457 40 24.9993 40C33.8608 40 41.1388 33.2197 41.9283 24.5639M40.2419 7.75736C42.585 10.1005 42.585 13.8995 40.2419 16.2426C37.8987 18.5858 34.0998 18.5858 31.7566 16.2426C29.4135 13.8995 29.4135 10.1005 31.7566 7.75736C34.0998 5.41421 37.8987 5.41421 40.2419 7.75736Z" stroke="#161518" stroke-width="2" stroke-linecap="round" stroke-linejoin="round"/>
</svg>
