<svg width="42" height="42" viewBox="0 0 42 42" fill="none" xmlns="http://www.w3.org/2000/svg">
<path d="M3.15197 11.9656L11.728 18.0913C12.1743 18.4101 12.3974 18.5694 12.631 18.6062C12.8364 18.6385 13.0469 18.6059 13.233 18.513C13.4445 18.4074 13.609 18.188 13.938 17.7493L15.7502 15.333C15.8433 15.209 15.8898 15.1469 15.9445 15.0934C15.993 15.0459 16.0463 15.0035 16.1035 14.9668C16.1678 14.9254 16.2387 14.8939 16.3804 14.8309L24.1176 11.3922C24.4383 11.2496 24.5987 11.1784 24.7196 11.067C24.8266 10.9686 24.9108 10.848 24.9664 10.7137C25.0292 10.5618 25.0409 10.3867 25.0642 10.0365L25.6307 1.53881M24 24L29.232 26.2423C29.8391 26.5025 30.1426 26.6325 30.3034 26.8486C30.4444 27.0382 30.5138 27.2715 30.4992 27.5074C30.4825 27.7762 30.2994 28.0509 29.933 28.6004L27.475 32.2876C27.3013 32.548 27.2145 32.6783 27.0998 32.7726C26.9982 32.8561 26.8812 32.9187 26.7554 32.9569C26.6133 33 26.4568 33 26.1437 33H22.1532C21.7385 33 21.5312 33 21.3548 32.9307C21.199 32.8694 21.061 32.77 20.9536 32.6415C20.832 32.4961 20.7665 32.2994 20.6353 31.906L19.2096 27.6287C19.1322 27.3967 19.0936 27.2807 19.0834 27.1628C19.0743 27.0582 19.0818 26.9529 19.1056 26.8507C19.1323 26.7354 19.187 26.626 19.2964 26.4072L20.3794 24.2412C20.5995 23.8011 20.7095 23.581 20.879 23.4444C21.0283 23.324 21.2091 23.2491 21.3998 23.2287C21.6163 23.2054 21.8497 23.2832 22.3165 23.4388L24 24ZM41 21C41 32.0457 32.0457 41 21 41C9.9543 41 1 32.0457 1 21C1 9.9543 9.9543 1 21 1C32.0457 1 41 9.9543 41 21Z" stroke="#161518" stroke-width="2" stroke-linecap="round" stroke-linejoin="round"/>
</svg>
