<svg width="42" height="38" viewBox="0 0 42 38" fill="none" xmlns="http://www.w3.org/2000/svg">
<path d="M12.1436 37C14.8132 35.7196 17.8199 35 21 35C24.1801 35 27.1868 35.7196 29.8564 37M10.6 29H31.4C34.7603 29 36.4405 29 37.7239 28.346C38.8529 27.7708 39.7708 26.8529 40.346 25.7239C41 24.4405 41 22.7603 41 19.4V10.6C41 7.23969 41 5.55953 40.346 4.27606C39.7708 3.14708 38.8529 2.2292 37.7239 1.65396C36.4405 1 34.7603 1 31.4 1H10.6C7.23969 1 5.55953 1 4.27606 1.65396C3.14708 2.2292 2.2292 3.14708 1.65396 4.27606C1 5.55953 1 7.23969 1 10.6V19.4C1 22.7603 1 24.4405 1.65396 25.7239C2.2292 26.8529 3.14708 27.7708 4.27606 28.346C5.55953 29 7.23969 29 10.6 29Z" stroke="#161518" stroke-width="2" stroke-linecap="round" stroke-linejoin="round"/>
</svg>
