<svg width="48" height="48" viewBox="0 0 48 48" fill="none" xmlns="http://www.w3.org/2000/svg">
<path d="M24 42C33.9411 42 42 33.9411 42 24C42 14.0589 33.9411 6 24 6C14.0589 6 6 14.0589 6 24C6 33.9411 14.0589 42 24 42Z" stroke="#161518" stroke-width="2" stroke-linecap="round" stroke-linejoin="round"/>
<path d="M17.25 22.5C18.4926 22.5 19.5 21.4926 19.5 20.25C19.5 19.0074 18.4926 18 17.25 18C16.0074 18 15 19.0074 15 20.25C15 21.4926 16.0074 22.5 17.25 22.5Z" fill="#161518"/>
<path d="M30.75 22.5C31.9926 22.5 33 21.4926 33 20.25C33 19.0074 31.9926 18 30.75 18C29.5074 18 28.5 19.0074 28.5 20.25C28.5 21.4926 29.5074 22.5 30.75 22.5Z" fill="#161518"/>
<path d="M31.8 28.5C31.0071 29.8661 29.8692 31 28.5003 31.7882C27.1315 32.5764 25.5796 32.9913 24 32.9913C22.4204 32.9913 20.8686 32.5764 19.4997 31.7882C18.1308 31 16.993 29.8661 16.2 28.5" stroke="#161518" stroke-width="2" stroke-linecap="round" stroke-linejoin="round"/>
</svg>
