<svg width="40" height="38" viewBox="0 0 40 38" fill="none" xmlns="http://www.w3.org/2000/svg">
<path d="M5.596 27.5C5.32048 27.501 5.04786 27.4437 4.796 27.332C3.37072 26.7079 2.15811 25.6822 1.30638 24.3801C0.454656 23.078 0.000700763 21.5559 0 20C0.00206346 18.2264 0.592406 16.5037 1.67854 15.1016C2.76467 13.6995 4.28523 12.6973 6.002 12.252L6 12C6 5.38201 11.382 1.01133e-05 18 1.01133e-05C20.8341 -0.00367567 23.5773 1.00022 25.7396 2.83239C27.9018 4.66457 29.3424 7.20572 29.804 10.002C29.892 10.525 29.7686 11.0615 29.4611 11.4936C29.1535 11.9257 28.687 12.2179 28.164 12.306C27.6415 12.3902 27.1069 12.2653 26.6757 11.9584C26.2446 11.6515 25.9515 11.1873 25.86 10.666C25.5531 8.80331 24.5942 7.1103 23.1544 5.88926C21.7147 4.66821 19.8878 3.99861 18 4.00001C16.8117 4.00079 15.6385 4.266 14.5655 4.77642C13.4924 5.28684 12.5464 6.02967 11.796 6.95104C11.0456 7.8724 10.5097 8.94922 10.227 10.1034C9.94443 11.2576 9.92221 12.4602 10.162 13.624L10.68 16.164L7.818 15.988C5.794 16 4 17.794 4 20C4 21.59 4.942 23.03 6.4 23.668C6.82081 23.8523 7.16535 24.1759 7.37569 24.5843C7.58603 24.9927 7.64936 25.4611 7.55503 25.9107C7.46069 26.3603 7.21445 26.7637 6.85769 27.0532C6.50093 27.3426 6.0554 27.5004 5.596 27.5ZM34 10C33.4696 10 32.9609 10.2107 32.5858 10.5858C32.2107 10.9609 32 11.4696 32 12C32 12.5304 32.2107 13.0391 32.5858 13.4142C32.9609 13.7893 33.4696 14 34 14C34.5304 14 35.0391 14.2107 35.4142 14.5858C35.7893 14.9609 36 15.4696 36 16C36 16.5304 35.7893 17.0391 35.4142 17.4142C35.0391 17.7893 34.5304 18 34 18H14.8C14.2696 18 13.7609 18.2107 13.3858 18.5858C13.0107 18.9609 12.8 19.4696 12.8 20C12.8 20.5304 13.0107 21.0391 13.3858 21.4142C13.7609 21.7893 14.2696 22 14.8 22H24C24.5304 22 25.0391 22.2107 25.4142 22.5858C25.7893 22.9609 26 23.4696 26 24C26 24.5304 25.7893 25.0391 25.4142 25.4142C25.0391 25.7893 24.5304 26 24 26H14C10.692 26 8 28.692 8 32C8 35.308 10.692 38 14 38C14.5304 38 15.0391 37.7893 15.4142 37.4142C15.7893 37.0392 16 36.5304 16 36C16 35.4696 15.7893 34.9609 15.4142 34.5858C15.0391 34.2107 14.5304 34 14 34C13.4696 34 12.9609 33.7893 12.5858 33.4142C12.2107 33.0392 12 32.5304 12 32C12 31.4696 12.2107 30.9609 12.5858 30.5858C12.9609 30.2107 13.4696 30 14 30H24C27.308 30 30 27.308 30 24C30 23.294 29.856 22.628 29.63 22H34C37.308 22 40 19.308 40 16C40 12.692 37.308 10 34 10Z" fill="white"/>
</svg>
